<mxfile host="app.diagrams.net" agent="Mozilla/5.0 (Windows NT 10.0; Win64; x64) AppleWebKit/537.36 (KHTML, like Gecko) Chrome/132.0.0.0 Safari/537.36" version="26.0.8">
  <diagram name="Page-1" id="Ul_h1oN0CHJci3-r6ONN">
    <mxGraphModel dx="1900" dy="1696" grid="1" gridSize="10" guides="1" tooltips="1" connect="1" arrows="1" fold="1" page="1" pageScale="1" pageWidth="850" pageHeight="1100" math="0" shadow="0">
      <root>
        <mxCell id="0" />
        <mxCell id="1" parent="0" />
        <mxCell id="6J8MlDCfnsHynz8ZygzT-1" value="disassembler" style="rounded=0;whiteSpace=wrap;html=1;fillColor=#b0e3e6;strokeColor=#0e8088;" parent="1" vertex="1">
          <mxGeometry x="60" y="140" width="120" height="60" as="geometry" />
        </mxCell>
        <mxCell id="6J8MlDCfnsHynz8ZygzT-2" value="" style="endArrow=classic;html=1;rounded=0;" parent="1" source="6J8MlDCfnsHynz8ZygzT-1" target="6J8MlDCfnsHynz8ZygzT-3" edge="1">
          <mxGeometry width="50" height="50" relative="1" as="geometry">
            <mxPoint x="230" y="320" as="sourcePoint" />
            <mxPoint x="270" y="170" as="targetPoint" />
          </mxGeometry>
        </mxCell>
        <mxCell id="6J8MlDCfnsHynz8ZygzT-3" value="análise" style="rounded=0;whiteSpace=wrap;html=1;fillColor=#b1ddf0;strokeColor=#10739e;" parent="1" vertex="1">
          <mxGeometry x="230" y="140" width="120" height="60" as="geometry" />
        </mxCell>
        <mxCell id="6J8MlDCfnsHynz8ZygzT-5" value="criação do contrato" style="rounded=0;whiteSpace=wrap;html=1;" parent="1" vertex="1">
          <mxGeometry x="370" y="40" width="120" height="60" as="geometry" />
        </mxCell>
        <mxCell id="6J8MlDCfnsHynz8ZygzT-7" value="transações simbólicas depois da criação do contrato" style="rounded=0;whiteSpace=wrap;html=1;" parent="1" vertex="1">
          <mxGeometry x="370" y="240" width="120" height="60" as="geometry" />
        </mxCell>
        <mxCell id="6J8MlDCfnsHynz8ZygzT-21" value="módulos de detecção" style="rounded=0;whiteSpace=wrap;html=1;glass=0;fillColor=#d0cee2;strokeColor=#56517e;" parent="1" vertex="1">
          <mxGeometry x="550" y="-270" width="120" height="60" as="geometry" />
        </mxCell>
        <mxCell id="6J8MlDCfnsHynz8ZygzT-47" value="depois do&amp;nbsp; loop faz o report das vulnerabilidades encontradas" style="whiteSpace=wrap;html=1;rounded=0;" parent="1" vertex="1">
          <mxGeometry x="800" y="120" width="120" height="60" as="geometry" />
        </mxCell>
        <mxCell id="6J8MlDCfnsHynz8ZygzT-52" value="execução simbólica da instrução" style="rounded=0;whiteSpace=wrap;html=1;fillColor=#bac8d3;strokeColor=#23445d;" parent="1" vertex="1">
          <mxGeometry x="820" y="-270" width="120" height="60" as="geometry" />
        </mxCell>
        <mxCell id="6J8MlDCfnsHynz8ZygzT-59" value="" style="endArrow=classic;html=1;rounded=0;entryX=0;entryY=0;entryDx=0;entryDy=0;exitX=1;exitY=0.25;exitDx=0;exitDy=0;" parent="1" source="6J8MlDCfnsHynz8ZygzT-21" target="6J8MlDCfnsHynz8ZygzT-174" edge="1">
          <mxGeometry width="50" height="50" relative="1" as="geometry">
            <mxPoint x="680" y="-290" as="sourcePoint" />
            <mxPoint x="720" y="-200" as="targetPoint" />
          </mxGeometry>
        </mxCell>
        <mxCell id="6J8MlDCfnsHynz8ZygzT-60" value="" style="endArrow=none;html=1;rounded=0;entryX=0;entryY=0.5;entryDx=0;entryDy=0;exitX=1;exitY=0.5;exitDx=0;exitDy=0;" parent="1" source="6J8MlDCfnsHynz8ZygzT-125" target="6J8MlDCfnsHynz8ZygzT-21" edge="1">
          <mxGeometry width="50" height="50" relative="1" as="geometry">
            <mxPoint x="1080" as="sourcePoint" />
            <mxPoint x="1150" y="-30" as="targetPoint" />
          </mxGeometry>
        </mxCell>
        <mxCell id="6J8MlDCfnsHynz8ZygzT-67" value="busca o 1° estado da fila pois utiliza por padrão busca em largura (BFS)" style="rounded=0;whiteSpace=wrap;html=1;" parent="1" vertex="1">
          <mxGeometry x="770" y="-460" width="120" height="60" as="geometry" />
        </mxCell>
        <mxCell id="6J8MlDCfnsHynz8ZygzT-69" value="&amp;nbsp;criado simbolicamente ou com estado pré-configurado da blockchain" style="ellipse;whiteSpace=wrap;html=1;" parent="1" vertex="1">
          <mxGeometry x="290" y="-80" width="120" height="80" as="geometry" />
        </mxCell>
        <mxCell id="6J8MlDCfnsHynz8ZygzT-70" value="" style="endArrow=none;html=1;rounded=0;entryX=0.25;entryY=0;entryDx=0;entryDy=0;" parent="1" source="6J8MlDCfnsHynz8ZygzT-69" target="6J8MlDCfnsHynz8ZygzT-5" edge="1">
          <mxGeometry width="50" height="50" relative="1" as="geometry">
            <mxPoint x="590" y="250" as="sourcePoint" />
            <mxPoint x="640" y="200" as="targetPoint" />
          </mxGeometry>
        </mxCell>
        <mxCell id="6J8MlDCfnsHynz8ZygzT-76" value="lista de novos estados" style="whiteSpace=wrap;html=1;rounded=0;" parent="1" vertex="1">
          <mxGeometry x="1080" y="-270" width="120" height="60" as="geometry" />
        </mxCell>
        <mxCell id="6J8MlDCfnsHynz8ZygzT-78" value="próxima instrução EVM" style="rounded=0;whiteSpace=wrap;html=1;" parent="1" vertex="1">
          <mxGeometry x="1210" y="-360" width="120" height="60" as="geometry" />
        </mxCell>
        <mxCell id="6J8MlDCfnsHynz8ZygzT-82" value="gera" style="rhombus;whiteSpace=wrap;html=1;" parent="1" vertex="1">
          <mxGeometry x="970" y="-280" width="80" height="80" as="geometry" />
        </mxCell>
        <mxCell id="6J8MlDCfnsHynz8ZygzT-181" style="edgeStyle=orthogonalEdgeStyle;rounded=0;orthogonalLoop=1;jettySize=auto;html=1;exitX=0.5;exitY=0;exitDx=0;exitDy=0;" parent="1" source="6J8MlDCfnsHynz8ZygzT-95" target="6J8MlDCfnsHynz8ZygzT-174" edge="1">
          <mxGeometry relative="1" as="geometry" />
        </mxCell>
        <mxCell id="6J8MlDCfnsHynz8ZygzT-95" value="entra no loop" style="rhombus;whiteSpace=wrap;html=1;" parent="1" vertex="1">
          <mxGeometry x="630" y="110" width="80" height="80" as="geometry" />
        </mxCell>
        <mxCell id="6J8MlDCfnsHynz8ZygzT-103" value="faz" style="rhombus;whiteSpace=wrap;html=1;" parent="1" vertex="1">
          <mxGeometry x="80" y="40" width="80" height="80" as="geometry" />
        </mxCell>
        <mxCell id="6J8MlDCfnsHynz8ZygzT-105" value="&lt;div&gt;disassemblagem do bytecode gerado da compilação&lt;/div&gt;" style="rounded=0;whiteSpace=wrap;html=1;" parent="1" vertex="1">
          <mxGeometry x="60" y="-40" width="120" height="60" as="geometry" />
        </mxCell>
        <mxCell id="6J8MlDCfnsHynz8ZygzT-108" value="" style="endArrow=none;html=1;rounded=0;entryX=0.5;entryY=1;entryDx=0;entryDy=0;" parent="1" target="6J8MlDCfnsHynz8ZygzT-103" edge="1">
          <mxGeometry width="50" height="50" relative="1" as="geometry">
            <mxPoint x="120" y="140" as="sourcePoint" />
            <mxPoint x="170" y="90" as="targetPoint" />
          </mxGeometry>
        </mxCell>
        <mxCell id="6J8MlDCfnsHynz8ZygzT-109" value="" style="endArrow=none;html=1;rounded=0;entryX=0.5;entryY=1;entryDx=0;entryDy=0;exitX=0.5;exitY=0;exitDx=0;exitDy=0;" parent="1" source="6J8MlDCfnsHynz8ZygzT-103" target="6J8MlDCfnsHynz8ZygzT-105" edge="1">
          <mxGeometry width="50" height="50" relative="1" as="geometry">
            <mxPoint x="110" y="50" as="sourcePoint" />
            <mxPoint x="160" as="targetPoint" />
          </mxGeometry>
        </mxCell>
        <mxCell id="6J8MlDCfnsHynz8ZygzT-110" value="compilação do contrato utilizando o solc" style="rounded=0;whiteSpace=wrap;html=1;" parent="1" vertex="1">
          <mxGeometry x="-70" y="50" width="120" height="60" as="geometry" />
        </mxCell>
        <mxCell id="6J8MlDCfnsHynz8ZygzT-112" value="" style="endArrow=none;html=1;rounded=0;exitX=1;exitY=0.5;exitDx=0;exitDy=0;" parent="1" source="6J8MlDCfnsHynz8ZygzT-110" edge="1">
          <mxGeometry width="50" height="50" relative="1" as="geometry">
            <mxPoint x="30" y="130" as="sourcePoint" />
            <mxPoint x="80" y="80" as="targetPoint" />
          </mxGeometry>
        </mxCell>
        <mxCell id="6J8MlDCfnsHynz8ZygzT-113" value="ocorre" style="rhombus;whiteSpace=wrap;html=1;" parent="1" vertex="1">
          <mxGeometry x="390" y="130" width="80" height="80" as="geometry" />
        </mxCell>
        <mxCell id="6J8MlDCfnsHynz8ZygzT-115" value="" style="endArrow=none;html=1;rounded=0;entryX=0;entryY=0.5;entryDx=0;entryDy=0;" parent="1" target="6J8MlDCfnsHynz8ZygzT-113" edge="1">
          <mxGeometry width="50" height="50" relative="1" as="geometry">
            <mxPoint x="350" y="170" as="sourcePoint" />
            <mxPoint x="400" y="120" as="targetPoint" />
          </mxGeometry>
        </mxCell>
        <mxCell id="6J8MlDCfnsHynz8ZygzT-116" value="" style="endArrow=none;html=1;rounded=0;entryX=0.5;entryY=1;entryDx=0;entryDy=0;" parent="1" target="6J8MlDCfnsHynz8ZygzT-5" edge="1">
          <mxGeometry width="50" height="50" relative="1" as="geometry">
            <mxPoint x="430" y="130" as="sourcePoint" />
            <mxPoint x="480" y="80" as="targetPoint" />
          </mxGeometry>
        </mxCell>
        <mxCell id="6J8MlDCfnsHynz8ZygzT-118" value="" style="endArrow=none;html=1;rounded=0;entryX=0.5;entryY=1;entryDx=0;entryDy=0;" parent="1" target="6J8MlDCfnsHynz8ZygzT-113" edge="1">
          <mxGeometry width="50" height="50" relative="1" as="geometry">
            <mxPoint x="430" y="240" as="sourcePoint" />
            <mxPoint x="480" y="190" as="targetPoint" />
          </mxGeometry>
        </mxCell>
        <mxCell id="6J8MlDCfnsHynz8ZygzT-119" value="" style="endArrow=none;html=1;rounded=0;entryX=0;entryY=0;entryDx=0;entryDy=0;" parent="1" target="6J8MlDCfnsHynz8ZygzT-95" edge="1">
          <mxGeometry width="50" height="50" relative="1" as="geometry">
            <mxPoint x="490" y="70" as="sourcePoint" />
            <mxPoint x="540" y="20" as="targetPoint" />
          </mxGeometry>
        </mxCell>
        <mxCell id="6J8MlDCfnsHynz8ZygzT-120" value="" style="endArrow=none;html=1;rounded=0;entryX=0;entryY=1;entryDx=0;entryDy=0;" parent="1" target="6J8MlDCfnsHynz8ZygzT-95" edge="1">
          <mxGeometry width="50" height="50" relative="1" as="geometry">
            <mxPoint x="490" y="270" as="sourcePoint" />
            <mxPoint x="540" y="220" as="targetPoint" />
          </mxGeometry>
        </mxCell>
        <mxCell id="6J8MlDCfnsHynz8ZygzT-122" value="" style="endArrow=classic;html=1;rounded=0;entryX=0;entryY=0.5;entryDx=0;entryDy=0;exitX=1;exitY=0.5;exitDx=0;exitDy=0;" parent="1" source="6J8MlDCfnsHynz8ZygzT-95" target="6J8MlDCfnsHynz8ZygzT-47" edge="1">
          <mxGeometry width="50" height="50" relative="1" as="geometry">
            <mxPoint x="670" y="70" as="sourcePoint" />
            <mxPoint x="780" y="150" as="targetPoint" />
          </mxGeometry>
        </mxCell>
        <mxCell id="6J8MlDCfnsHynz8ZygzT-125" value="fazem" style="rhombus;whiteSpace=wrap;html=1;" parent="1" vertex="1">
          <mxGeometry x="420" y="-280" width="80" height="80" as="geometry" />
        </mxCell>
        <mxCell id="6J8MlDCfnsHynz8ZygzT-126" value="constraints locais especificas de cada módulo" style="rounded=0;whiteSpace=wrap;html=1;" parent="1" vertex="1">
          <mxGeometry x="190" y="-140" width="120" height="60" as="geometry" />
        </mxCell>
        <mxCell id="6J8MlDCfnsHynz8ZygzT-128" value="" style="endArrow=none;html=1;rounded=0;exitX=1;exitY=0.5;exitDx=0;exitDy=0;entryX=0.5;entryY=1;entryDx=0;entryDy=0;" parent="1" source="6J8MlDCfnsHynz8ZygzT-126" target="6J8MlDCfnsHynz8ZygzT-125" edge="1">
          <mxGeometry width="50" height="50" relative="1" as="geometry">
            <mxPoint x="410" y="-60" as="sourcePoint" />
            <mxPoint x="460" y="-110" as="targetPoint" />
          </mxGeometry>
        </mxCell>
        <mxCell id="6J8MlDCfnsHynz8ZygzT-132" value="verifica" style="rhombus;whiteSpace=wrap;html=1;" parent="1" vertex="1">
          <mxGeometry x="70" y="-310" width="80" height="80" as="geometry" />
        </mxCell>
        <mxCell id="6J8MlDCfnsHynz8ZygzT-133" value="atribuição da vulnerabilidade na lista de issues, caso tenha encontrado" style="rounded=0;whiteSpace=wrap;html=1;" parent="1" vertex="1">
          <mxGeometry x="190" y="-380" width="120" height="60" as="geometry" />
        </mxCell>
        <mxCell id="6J8MlDCfnsHynz8ZygzT-134" value="check utilizando o solver Z3" style="rounded=0;whiteSpace=wrap;html=1;" parent="1" vertex="1">
          <mxGeometry x="190" y="-300" width="120" height="60" as="geometry" />
        </mxCell>
        <mxCell id="6J8MlDCfnsHynz8ZygzT-135" value="combinação das constraints locais + contraints do estado global" style="rounded=0;whiteSpace=wrap;html=1;" parent="1" vertex="1">
          <mxGeometry x="190" y="-220" width="120" height="60" as="geometry" />
        </mxCell>
        <mxCell id="6J8MlDCfnsHynz8ZygzT-137" value="" style="endArrow=none;html=1;rounded=0;entryX=0.5;entryY=0;entryDx=0;entryDy=0;" parent="1" target="6J8MlDCfnsHynz8ZygzT-125" edge="1">
          <mxGeometry width="50" height="50" relative="1" as="geometry">
            <mxPoint x="310" y="-350" as="sourcePoint" />
            <mxPoint x="360" y="-400" as="targetPoint" />
          </mxGeometry>
        </mxCell>
        <mxCell id="6J8MlDCfnsHynz8ZygzT-138" value="" style="endArrow=none;html=1;rounded=0;entryX=0;entryY=0;entryDx=0;entryDy=0;" parent="1" target="6J8MlDCfnsHynz8ZygzT-125" edge="1">
          <mxGeometry width="50" height="50" relative="1" as="geometry">
            <mxPoint x="310" y="-270" as="sourcePoint" />
            <mxPoint x="360" y="-320" as="targetPoint" />
          </mxGeometry>
        </mxCell>
        <mxCell id="6J8MlDCfnsHynz8ZygzT-139" value="" style="endArrow=none;html=1;rounded=0;entryX=0;entryY=1;entryDx=0;entryDy=0;exitX=1;exitY=0.5;exitDx=0;exitDy=0;" parent="1" source="6J8MlDCfnsHynz8ZygzT-135" target="6J8MlDCfnsHynz8ZygzT-125" edge="1">
          <mxGeometry width="50" height="50" relative="1" as="geometry">
            <mxPoint x="310" y="-190" as="sourcePoint" />
            <mxPoint x="360" y="-240" as="targetPoint" />
          </mxGeometry>
        </mxCell>
        <mxCell id="6J8MlDCfnsHynz8ZygzT-140" value="" style="endArrow=none;html=1;rounded=0;exitX=1;exitY=0.5;exitDx=0;exitDy=0;" parent="1" source="6J8MlDCfnsHynz8ZygzT-132" edge="1">
          <mxGeometry width="50" height="50" relative="1" as="geometry">
            <mxPoint x="140" y="-220" as="sourcePoint" />
            <mxPoint x="190" y="-270" as="targetPoint" />
          </mxGeometry>
        </mxCell>
        <mxCell id="6J8MlDCfnsHynz8ZygzT-141" value="" style="endArrow=none;html=1;rounded=0;exitX=1;exitY=0.5;exitDx=0;exitDy=0;" parent="1" source="6J8MlDCfnsHynz8ZygzT-142" edge="1">
          <mxGeometry width="50" height="50" relative="1" as="geometry">
            <mxPoint x="20" y="-270" as="sourcePoint" />
            <mxPoint x="70" y="-270" as="targetPoint" />
          </mxGeometry>
        </mxCell>
        <mxCell id="6J8MlDCfnsHynz8ZygzT-142" value="satisfiabilidade da expressao booleana (constraints)" style="rounded=0;whiteSpace=wrap;html=1;" parent="1" vertex="1">
          <mxGeometry x="-70" y="-300" width="120" height="60" as="geometry" />
        </mxCell>
        <mxCell id="6J8MlDCfnsHynz8ZygzT-144" value="" style="endArrow=none;html=1;rounded=0;entryX=0;entryY=0.5;entryDx=0;entryDy=0;" parent="1" target="6J8MlDCfnsHynz8ZygzT-82" edge="1">
          <mxGeometry width="50" height="50" relative="1" as="geometry">
            <mxPoint x="940" y="-240" as="sourcePoint" />
            <mxPoint x="990" y="-290" as="targetPoint" />
          </mxGeometry>
        </mxCell>
        <mxCell id="6J8MlDCfnsHynz8ZygzT-145" value="" style="endArrow=none;html=1;rounded=0;entryX=0;entryY=0.5;entryDx=0;entryDy=0;" parent="1" target="6J8MlDCfnsHynz8ZygzT-76" edge="1">
          <mxGeometry width="50" height="50" relative="1" as="geometry">
            <mxPoint x="1050" y="-240" as="sourcePoint" />
            <mxPoint x="1100" y="-290" as="targetPoint" />
          </mxGeometry>
        </mxCell>
        <mxCell id="6J8MlDCfnsHynz8ZygzT-146" value="contém" style="rhombus;whiteSpace=wrap;html=1;" parent="1" vertex="1">
          <mxGeometry x="1100" y="-370" width="80" height="80" as="geometry" />
        </mxCell>
        <mxCell id="6J8MlDCfnsHynz8ZygzT-147" value="pode acontecer" style="rhombus;whiteSpace=wrap;html=1;" parent="1" vertex="1">
          <mxGeometry x="1230" y="-280" width="80" height="80" as="geometry" />
        </mxCell>
        <mxCell id="6J8MlDCfnsHynz8ZygzT-148" value="as constraints globais do estado anterior" style="rounded=0;whiteSpace=wrap;html=1;" parent="1" vertex="1">
          <mxGeometry x="1080" y="-450" width="120" height="60" as="geometry" />
        </mxCell>
        <mxCell id="6J8MlDCfnsHynz8ZygzT-149" value="caso tenha REVERT ou STOP as constraints globais se tornam da ultima bifurcação" style="ellipse;whiteSpace=wrap;html=1;" parent="1" vertex="1">
          <mxGeometry x="1080" y="-550" width="120" height="80" as="geometry" />
        </mxCell>
        <mxCell id="6J8MlDCfnsHynz8ZygzT-150" value="" style="endArrow=none;html=1;rounded=0;entryX=0.5;entryY=1;entryDx=0;entryDy=0;exitX=0.5;exitY=0;exitDx=0;exitDy=0;" parent="1" source="6J8MlDCfnsHynz8ZygzT-76" target="6J8MlDCfnsHynz8ZygzT-146" edge="1">
          <mxGeometry width="50" height="50" relative="1" as="geometry">
            <mxPoint x="1150" y="-270" as="sourcePoint" />
            <mxPoint x="1200" y="-320" as="targetPoint" />
            <Array as="points" />
          </mxGeometry>
        </mxCell>
        <mxCell id="6J8MlDCfnsHynz8ZygzT-151" value="" style="endArrow=none;html=1;rounded=0;entryX=0.5;entryY=1;entryDx=0;entryDy=0;exitX=0.5;exitY=0;exitDx=0;exitDy=0;" parent="1" source="6J8MlDCfnsHynz8ZygzT-146" target="6J8MlDCfnsHynz8ZygzT-148" edge="1">
          <mxGeometry width="50" height="50" relative="1" as="geometry">
            <mxPoint x="1140" y="-360" as="sourcePoint" />
            <mxPoint x="1190" y="-410" as="targetPoint" />
          </mxGeometry>
        </mxCell>
        <mxCell id="6J8MlDCfnsHynz8ZygzT-152" value="" style="endArrow=none;html=1;rounded=0;entryX=0.5;entryY=1;entryDx=0;entryDy=0;exitX=0.5;exitY=0;exitDx=0;exitDy=0;" parent="1" source="6J8MlDCfnsHynz8ZygzT-148" target="6J8MlDCfnsHynz8ZygzT-149" edge="1">
          <mxGeometry width="50" height="50" relative="1" as="geometry">
            <mxPoint x="1150" y="-450" as="sourcePoint" />
            <mxPoint x="1200" y="-500" as="targetPoint" />
          </mxGeometry>
        </mxCell>
        <mxCell id="6J8MlDCfnsHynz8ZygzT-153" value="devem ser" style="rhombus;whiteSpace=wrap;html=1;" parent="1" vertex="1">
          <mxGeometry x="80" y="-150" width="80" height="80" as="geometry" />
        </mxCell>
        <mxCell id="6J8MlDCfnsHynz8ZygzT-154" value="expressões de vetor de bits Z3" style="rounded=0;whiteSpace=wrap;html=1;" parent="1" vertex="1">
          <mxGeometry x="-70" y="-140" width="120" height="60" as="geometry" />
        </mxCell>
        <mxCell id="6J8MlDCfnsHynz8ZygzT-155" value="" style="endArrow=none;html=1;rounded=0;entryX=0;entryY=0.5;entryDx=0;entryDy=0;exitX=1;exitY=0.5;exitDx=0;exitDy=0;" parent="1" source="6J8MlDCfnsHynz8ZygzT-153" target="6J8MlDCfnsHynz8ZygzT-126" edge="1">
          <mxGeometry width="50" height="50" relative="1" as="geometry">
            <mxPoint x="770" y="20" as="sourcePoint" />
            <mxPoint x="820" y="-30" as="targetPoint" />
          </mxGeometry>
        </mxCell>
        <mxCell id="6J8MlDCfnsHynz8ZygzT-156" value="" style="endArrow=none;html=1;rounded=0;entryX=0;entryY=0.5;entryDx=0;entryDy=0;exitX=1;exitY=0.5;exitDx=0;exitDy=0;" parent="1" source="6J8MlDCfnsHynz8ZygzT-154" target="6J8MlDCfnsHynz8ZygzT-153" edge="1">
          <mxGeometry width="50" height="50" relative="1" as="geometry">
            <mxPoint x="670" y="10" as="sourcePoint" />
            <mxPoint x="720" y="-40" as="targetPoint" />
          </mxGeometry>
        </mxCell>
        <mxCell id="6J8MlDCfnsHynz8ZygzT-157" value="" style="endArrow=none;html=1;rounded=0;entryX=0;entryY=0.5;entryDx=0;entryDy=0;exitX=0.5;exitY=0;exitDx=0;exitDy=0;" parent="1" source="6J8MlDCfnsHynz8ZygzT-153" target="6J8MlDCfnsHynz8ZygzT-135" edge="1">
          <mxGeometry width="50" height="50" relative="1" as="geometry">
            <mxPoint x="730" y="-20" as="sourcePoint" />
            <mxPoint x="780" y="-70" as="targetPoint" />
          </mxGeometry>
        </mxCell>
        <mxCell id="6J8MlDCfnsHynz8ZygzT-159" value="" style="endArrow=none;html=1;rounded=0;" parent="1" target="6J8MlDCfnsHynz8ZygzT-147" edge="1">
          <mxGeometry width="50" height="50" relative="1" as="geometry">
            <mxPoint x="1200" y="-240" as="sourcePoint" />
            <mxPoint x="1250" y="-290" as="targetPoint" />
          </mxGeometry>
        </mxCell>
        <mxCell id="6J8MlDCfnsHynz8ZygzT-160" value="poda se houver mais de um novo estado e se um valor aleatório for menor que o fator de poda" style="rounded=0;whiteSpace=wrap;html=1;" parent="1" vertex="1">
          <mxGeometry x="1340" y="-270" width="120" height="60" as="geometry" />
        </mxCell>
        <mxCell id="6J8MlDCfnsHynz8ZygzT-161" value="Apenas os estados com restrições satisfiáveis são mantidos" style="ellipse;whiteSpace=wrap;html=1;" parent="1" vertex="1">
          <mxGeometry x="1500" y="-280" width="120" height="80" as="geometry" />
        </mxCell>
        <mxCell id="6J8MlDCfnsHynz8ZygzT-162" value="" style="endArrow=none;html=1;rounded=0;entryX=0;entryY=0.5;entryDx=0;entryDy=0;" parent="1" target="6J8MlDCfnsHynz8ZygzT-160" edge="1">
          <mxGeometry width="50" height="50" relative="1" as="geometry">
            <mxPoint x="1310" y="-240" as="sourcePoint" />
            <mxPoint x="1360" y="-290" as="targetPoint" />
          </mxGeometry>
        </mxCell>
        <mxCell id="6J8MlDCfnsHynz8ZygzT-163" value="" style="endArrow=none;html=1;rounded=0;entryX=0;entryY=0.5;entryDx=0;entryDy=0;" parent="1" target="6J8MlDCfnsHynz8ZygzT-161" edge="1">
          <mxGeometry width="50" height="50" relative="1" as="geometry">
            <mxPoint x="1460" y="-240" as="sourcePoint" />
            <mxPoint x="1510" y="-290" as="targetPoint" />
          </mxGeometry>
        </mxCell>
        <mxCell id="6J8MlDCfnsHynz8ZygzT-164" value="selecionam" style="rhombus;whiteSpace=wrap;html=1;" parent="1" vertex="1">
          <mxGeometry x="500" y="-370" width="80" height="80" as="geometry" />
        </mxCell>
        <mxCell id="6J8MlDCfnsHynz8ZygzT-165" value="os módulos específicos para cada instrução EVM" style="rounded=0;whiteSpace=wrap;html=1;" parent="1" vertex="1">
          <mxGeometry x="480" y="-460" width="120" height="60" as="geometry" />
        </mxCell>
        <mxCell id="6J8MlDCfnsHynz8ZygzT-166" value="" style="endArrow=none;html=1;rounded=0;entryX=0.5;entryY=1;entryDx=0;entryDy=0;exitX=0.25;exitY=0;exitDx=0;exitDy=0;" parent="1" source="6J8MlDCfnsHynz8ZygzT-21" target="6J8MlDCfnsHynz8ZygzT-164" edge="1">
          <mxGeometry width="50" height="50" relative="1" as="geometry">
            <mxPoint x="1200" y="-150" as="sourcePoint" />
            <mxPoint x="1250" y="-200" as="targetPoint" />
          </mxGeometry>
        </mxCell>
        <mxCell id="6J8MlDCfnsHynz8ZygzT-168" value="" style="endArrow=none;html=1;rounded=0;exitX=0.5;exitY=0;exitDx=0;exitDy=0;entryX=0.5;entryY=1;entryDx=0;entryDy=0;" parent="1" source="6J8MlDCfnsHynz8ZygzT-164" target="6J8MlDCfnsHynz8ZygzT-165" edge="1">
          <mxGeometry width="50" height="50" relative="1" as="geometry">
            <mxPoint x="1190" y="-230" as="sourcePoint" />
            <mxPoint x="1240" y="-280" as="targetPoint" />
          </mxGeometry>
        </mxCell>
        <mxCell id="6J8MlDCfnsHynz8ZygzT-169" value="antes de as instruções serem simbolicamente executadas." style="rounded=0;whiteSpace=wrap;html=1;" parent="1" vertex="1">
          <mxGeometry x="620" y="-460" width="120" height="60" as="geometry" />
        </mxCell>
        <mxCell id="6J8MlDCfnsHynz8ZygzT-170" value="são executados" style="rhombus;whiteSpace=wrap;html=1;" parent="1" vertex="1">
          <mxGeometry x="610" y="-370" width="80" height="80" as="geometry" />
        </mxCell>
        <mxCell id="6J8MlDCfnsHynz8ZygzT-171" value="" style="endArrow=none;html=1;rounded=0;entryX=0.5;entryY=1;entryDx=0;entryDy=0;exitX=0.75;exitY=0;exitDx=0;exitDy=0;" parent="1" source="6J8MlDCfnsHynz8ZygzT-21" target="6J8MlDCfnsHynz8ZygzT-170" edge="1">
          <mxGeometry width="50" height="50" relative="1" as="geometry">
            <mxPoint x="570" y="-540" as="sourcePoint" />
            <mxPoint x="620" y="-590" as="targetPoint" />
          </mxGeometry>
        </mxCell>
        <mxCell id="6J8MlDCfnsHynz8ZygzT-172" value="" style="endArrow=none;html=1;rounded=0;exitX=0.25;exitY=1;exitDx=0;exitDy=0;entryX=0.5;entryY=0;entryDx=0;entryDy=0;" parent="1" source="6J8MlDCfnsHynz8ZygzT-169" target="6J8MlDCfnsHynz8ZygzT-170" edge="1">
          <mxGeometry width="50" height="50" relative="1" as="geometry">
            <mxPoint x="530" y="-420" as="sourcePoint" />
            <mxPoint x="690" y="-380" as="targetPoint" />
            <Array as="points" />
          </mxGeometry>
        </mxCell>
        <mxCell id="6J8MlDCfnsHynz8ZygzT-173" value="" style="endArrow=none;html=1;rounded=0;entryX=0;entryY=0.5;entryDx=0;entryDy=0;" parent="1" target="6J8MlDCfnsHynz8ZygzT-78" edge="1">
          <mxGeometry width="50" height="50" relative="1" as="geometry">
            <mxPoint x="1180" y="-330" as="sourcePoint" />
            <mxPoint x="1230" y="-380" as="targetPoint" />
          </mxGeometry>
        </mxCell>
        <mxCell id="6J8MlDCfnsHynz8ZygzT-174" value="loop na fila de estados" style="rhombus;whiteSpace=wrap;html=1;fillColor=#dae8fc;strokeColor=#6c8ebf;" parent="1" vertex="1">
          <mxGeometry x="700" y="-270" width="80" height="80" as="geometry" />
        </mxCell>
        <mxCell id="6J8MlDCfnsHynz8ZygzT-178" value="" style="endArrow=classic;html=1;rounded=0;entryX=1;entryY=1;entryDx=0;entryDy=0;exitX=0;exitY=0.75;exitDx=0;exitDy=0;" parent="1" source="6J8MlDCfnsHynz8ZygzT-52" target="6J8MlDCfnsHynz8ZygzT-174" edge="1">
          <mxGeometry width="50" height="50" relative="1" as="geometry">
            <mxPoint x="1440" y="-100" as="sourcePoint" />
            <mxPoint x="1490" y="-150" as="targetPoint" />
          </mxGeometry>
        </mxCell>
        <mxCell id="6J8MlDCfnsHynz8ZygzT-179" value="" style="endArrow=classic;html=1;rounded=0;entryX=1;entryY=0.75;entryDx=0;entryDy=0;" parent="1" target="6J8MlDCfnsHynz8ZygzT-21" edge="1">
          <mxGeometry width="50" height="50" relative="1" as="geometry">
            <mxPoint x="720" y="-210" as="sourcePoint" />
            <mxPoint x="770" y="-260" as="targetPoint" />
          </mxGeometry>
        </mxCell>
        <mxCell id="6J8MlDCfnsHynz8ZygzT-182" value="" style="endArrow=classic;html=1;rounded=0;entryX=0;entryY=0.25;entryDx=0;entryDy=0;" parent="1" target="6J8MlDCfnsHynz8ZygzT-52" edge="1">
          <mxGeometry width="50" height="50" relative="1" as="geometry">
            <mxPoint x="760" y="-250" as="sourcePoint" />
            <mxPoint x="810" y="-300" as="targetPoint" />
          </mxGeometry>
        </mxCell>
        <mxCell id="6J8MlDCfnsHynz8ZygzT-184" value="" style="endArrow=none;html=1;rounded=0;entryX=0;entryY=1;entryDx=0;entryDy=0;" parent="1" target="6J8MlDCfnsHynz8ZygzT-186" edge="1">
          <mxGeometry width="50" height="50" relative="1" as="geometry">
            <mxPoint x="740" y="-270" as="sourcePoint" />
            <mxPoint x="790" y="-320" as="targetPoint" />
          </mxGeometry>
        </mxCell>
        <mxCell id="6J8MlDCfnsHynz8ZygzT-186" value="busca" style="rhombus;whiteSpace=wrap;html=1;" parent="1" vertex="1">
          <mxGeometry x="770" y="-370" width="80" height="80" as="geometry" />
        </mxCell>
        <mxCell id="6J8MlDCfnsHynz8ZygzT-188" value="" style="endArrow=none;html=1;rounded=0;entryX=0.5;entryY=1;entryDx=0;entryDy=0;" parent="1" target="6J8MlDCfnsHynz8ZygzT-67" edge="1">
          <mxGeometry width="50" height="50" relative="1" as="geometry">
            <mxPoint x="810" y="-370" as="sourcePoint" />
            <mxPoint x="860" y="-420" as="targetPoint" />
          </mxGeometry>
        </mxCell>
      </root>
    </mxGraphModel>
  </diagram>
</mxfile>
